<?xml version="1.0" encoding="UTF-8" standalone="no"?>
<!DOCTYPE svg PUBLIC "-//W3C//DTD SVG 1.1//EN" "http://www.w3.org/Graphics/SVG/1.1/DTD/svg11.dtd">
<svg width="100%" height="100%" viewBox="0 0 3508 3508" version="1.1" xmlns="http://www.w3.org/2000/svg" xmlns:xlink="http://www.w3.org/1999/xlink" xml:space="preserve" xmlns:serif="http://www.serif.com/" style="fill-rule:evenodd;clip-rule:evenodd;stroke-linejoin:round;stroke-miterlimit:2;">
    <g transform="matrix(74.9244,0,0,74.9244,583.836,-44.2492)">
        <path d="M20.694,18.681C19.108,18.118 17.399,17.811 15.617,17.811C7.332,17.811 0.616,24.437 0.616,32.61C0.616,34.439 0.952,36.191 1.567,37.808L5.75,33.625C5.715,33.292 5.697,32.953 5.697,32.61C5.697,27.205 10.138,22.824 15.617,22.824C15.918,22.824 16.217,22.837 16.512,22.863L20.694,18.681Z" style="fill:rgb(246,130,18);"/>
    </g>
    <g transform="matrix(74.9244,0,0,74.9244,583.836,-44.2492)">
        <path d="M1.567,37.808C3.7,43.417 9.186,47.409 15.617,47.409C23.902,47.409 30.618,40.784 30.618,32.61C30.618,29.733 29.784,27.047 28.343,24.774L28.327,13.13C28.327,12.473 28.276,11.828 28.177,11.198L23.254,16.121L23.254,19.871C22.446,19.399 21.59,18.999 20.694,18.681L16.512,22.863C21.571,23.31 25.537,27.503 25.537,32.61C25.537,38.015 21.096,42.398 15.617,42.398C10.485,42.398 6.264,38.554 5.75,33.625L1.567,37.808Z" style="fill:rgb(35,31,32);"/>
    </g>
    <g transform="matrix(74.9244,0,0,74.9244,583.836,-44.2492)">
        <path d="M28.177,11.198C27.235,5.19 21.97,0.591 15.617,0.591C8.597,0.591 2.906,6.205 2.906,13.13L2.906,14.755L7.979,14.755L7.979,13.031C7.979,8.87 11.398,5.496 15.617,5.496C19.835,5.496 23.254,8.87 23.254,13.031L23.254,16.121L28.177,11.198Z" style="fill:rgb(246,130,18);"/>
    </g>
    <g transform="matrix(74.9244,0,0,74.9244,583.836,-44.2492)">
        <path d="M15.617,36.716C17.916,36.716 19.779,34.878 19.779,32.61C19.779,30.343 17.916,28.504 15.617,28.504C13.318,28.504 11.455,30.343 11.455,32.61C11.455,34.878 13.318,36.716 15.617,36.716Z" style="fill:rgb(35,31,32);"/>
    </g>
</svg>